<svg xmlns="http://www.w3.org/2000/svg" width="11592" height="3276" viewBox="0 0 5796 1638">
  <defs>
    <style>
      .cls-1 {
        fill: #fff;
      }

      .cls-1, .cls-2 {
        fill-rule: evenodd;
      }

      .cls-2 {
        fill: none;
        stroke: #fff;
        stroke-width: 65.04px;
      }
    </style>
  </defs>
  <path id="Estelar_Virtual_copia" data-name="Estelar Virtual copia" class="cls-1" d="M2468.69,384.957q9.435,0,9.44,7.268,0,25.446-18.16,25.435H2281.25c-7.76,0-12.35,2.907-13.81,8.721q-29.79,111.921-29.78,113.368,0,7.273,9.44,7.268h178.72c3.87,0,5.82.726,5.82,2.18,0,0.976-1.46,2.18-4.36,3.633l-29.06,19.622a36.2,36.2,0,0,1-21.07,6.54H2238.38q-11.625,0-13.8,9.448-29.79,111.921-29.79,112.642,0,7.272,9.45,7.267h178.72q5.8,0,5.81,2.18,0,1.466-4.36,4.361l-29.06,18.894a35.056,35.056,0,0,1-20.34,6.541H2034.24q-9.45,0-9.45-6.541V731.6l81.37-305.223v-3.634q0-8.721-12.35-20.348t-12.35-13.808q0-3.628,6.54-3.634h380.69Zm461.32,103.922q-39.24,26.161-50.13,26.162H2700.43q-10.89,0-13.8,8.72-12.36,47.964-12.35,48.691,0,7.272,9.44,7.267h149.66q28.335,0,46.86,14.171t18.53,36.7a71.1,71.1,0,0,1-1.45,13.807l-8.72,31.976q-7.275,26.895-35.6,45.784a110.193,110.193,0,0,1-62.48,18.895H2478.85c-3.4,0-5.09-.727-5.09-2.181s1.21-2.907,3.63-4.36q39.24-26.161,50.86-26.162h178.72q11.61,0,13.8-8.721,13.08-47.231,13.08-48.69,0-6.54-9.44-6.541H2574.02q-28.335,0-46.86-14.534T2508.63,592.8a41.247,41.247,0,0,1,2.18-13.081l8.72-32.7q6.54-26.163,35.24-45.421t62.11-19.258h311.68q5.8,0,5.81,2.18c0,1.454-1.46,2.907-4.36,4.361h0Zm103.16,187.494,40.68-152.612a5.584,5.584,0,0,1,.73-2.18c0-4.837-3.16-7.267-9.45-7.267h-98.8q-5.085,0-5.09-2.18,0-1.448,3.64-3.634l29.78-19.621a36.149,36.149,0,0,1,21.07-6.541h58.12q17.445,0,17.44-26.888,0-9.436-12.35-20.712-12.36-11.259-12.35-14.171,0-3.628,6.54-4.36l187.44-29.069h2.17c4.84,0,7.27,1.7,7.27,5.087q0,8.719-10.9,41.786t-10.9,41.06q0,7.274,9.45,7.267h98.08q5.805,0,5.81,2.18c0,0.977-1.22,2.43-3.63,4.361L3328.13,508.5a39.354,39.354,0,0,1-21.07,5.814h-58.12q-10.89,0-13.8,9.447l-46.5,175.867v1.454q0,7.272,9.45,7.267h98.07q5.085,0,5.09,2.18c0,0.977-1.22,2.43-3.63,4.361l-29.06,19.621a43.2,43.2,0,0,1-21.8,5.814H3097.1q-28.335,0-46.86-14.171t-18.52-36.7a59.465,59.465,0,0,1,1.45-13.081h0Zm767.18-129.356L3783.64,611.7q-7.26,26.895-35.96,45.783-28.71,18.908-62.11,18.9H3535.18q-17.43,0-17.44,25.435,0,6.542,9.45,6.541h219.4q5.085,0,5.09,2.18c0,1.454-1.22,2.907-3.63,4.361q-39.24,26.162-50.86,26.162H3426.2q-28.335,0-46.86-14.172t-18.52-36.7a43.234,43.234,0,0,1,2.18-13.808l34.14-129.356q6.54-26.163,35.24-45.421t62.11-19.258h242.66q28.335,0,46.86,14.535t18.52,37.063a40.973,40.973,0,0,1-2.18,13.081h0Zm-221.98-31.976q-10.845,0-13.73,8.823-29.8,112.653-29.79,113.368,0,7.172,9.4,7.165h57.84q11.55,0,13.73-9.447,29.79-111.9,29.79-113.369,0-6.54-9.4-6.54h-57.84Zm321.51-98.834,186.71-29.069h2.91c4.36,0,6.53,1.7,6.53,5.087v2.18l-79.18,298.683a2.95,2.95,0,0,0-.73,2.18q0,8.005,15.62,9.811,15.615,1.822,15.62,4.723,0,2.181-43.59,30.523H3854.11q-9.45,0-9.45-6.541V731.6l72.65-272.521a12.068,12.068,0,0,0,.73-3.633q0-9.436-12.71-20.712-12.72-11.259-12.72-14.171,0-3.628,7.27-4.36h0ZM4127.63,726.88q-18.525-14.171-18.53-36.7a43.513,43.513,0,0,1,2.18-13.808l16.71-64.678q7.26-26.162,35.6-45.42a108.811,108.811,0,0,1,62.48-19.258h149.66q18.15,0,18.16-25.436,0-6.54-9.44-6.54H4205.73q-11.625,0-18.16-6.541l-18.89-19.621a4.134,4.134,0,0,1-1.46-2.907q0-3.628,6.54-3.634h311.67q28.335,0,46.86,14.535t18.53,37.063a41.252,41.252,0,0,1-2.18,13.081l-38.5,146.071v2.18q0,8.005,15.25,10.174t15.26,5.087q0,2.181-4.36,4.361-39.225,26.162-50.13,26.162H4174.49Q4146.155,741.052,4127.63,726.88Zm168.19-138.44q-29.805,111.921-29.79,113.368c0,4.361,3.15,6.541,9.48,6.541h57.6q11.64,0,13.84-8.641,29.79-111.9,29.79-113.369,0-7.341-8.75-7.347h-58.33q-11.655,0-13.84,9.448h0Zm759.92,19.985q15.255,1.822,15.26,4.723c0,1.454-1.22,3.157-3.63,5.087l-29.79,19.622a36.2,36.2,0,0,1-21.07,6.54H4878.47q-9.45,0-9.44-7.267,0-14.529,14.89-58.864,14.88-44.319,14.9-56.685c0-4.36-3.16-6.54-9.45-6.54h-57.39c-7.76,0-12.35,2.907-13.81,8.72L4762.96,731.6q-2.91,9.453-13.81,9.448H4610.39q-9.45,0-9.44-7.268V731.6l55.21-207.843a8.135,8.135,0,0,0,.73-3.633q0-8.721-12.72-20.348t-12.71-13.808q0-3.628,7.27-3.634h351.63q28.32,0,46.86,14.535,18.525,14.546,18.52,37.063a41.252,41.252,0,0,1-2.18,13.081l-12.35,49.417a2.95,2.95,0,0,0-.73,2.18Q5040.48,606.62,5055.74,608.425ZM2099.62,1252q-10.89,0-12.35-8.72l-36.32-292.869q-1.47-9.435-13.81-27.978-12.36-18.533-12.35-20.712,0-4.361,7.99-4.36H2211.5q11.625,0,12.35,8.72l21.07,277.609q0,4.365,2.18,4.36,1.455,0,3.63-4.36l168.55-277.609q5.085-8.72,16.71-8.72h58.12c4.84,0,7.27,1.7,7.27,5.087q0,1.464-205.6,340.1-5.82,9.465-16.71,9.45H2099.62Zm399.57-9.45,55.22-207.84a8.26,8.26,0,0,0,.72-3.63q0-8.73-12.71-20.35t-12.72-13.808q0-3.629,6.54-3.634h179.45q8.715,0,8.72,7.272v2.18l-53.76,201.3v2.18q0,7.995,15.25,10.17,15.27,2.19,15.26,5.09c0,1.45-1.21,2.91-3.63,4.36l-29.79,19.62a35.062,35.062,0,0,1-20.34,6.54H2507.91q-8.715,0-8.72-7.27v-2.18h0ZM2607.8,947.141q-18.525-14.171-18.52-36.7,0-30.524,30.88-54.5t68.65-23.981q28.335,0,46.86,14.534t18.53,37.063q0,29.807-30.52,53.777t-69.02,23.982Q2626.34,961.312,2607.8,947.141Zm610.63,172.229q15.255,1.83,15.26,4.73c0,1.45-1.22,3.15-3.63,5.09l-29.79,19.62a36.2,36.2,0,0,1-21.07,6.54H3041.16q-9.45,0-9.44-7.27,0-14.535,14.89-58.86t14.9-56.69c0-4.36-3.16-6.54-9.45-6.54h-57.39c-7.76,0-12.35,2.91-13.81,8.72l-55.21,207.84q-2.91,9.465-13.81,9.45H2773.08q-9.45,0-9.44-7.27v-2.18l55.21-207.84a8.116,8.116,0,0,0,.73-3.63q0-8.73-12.72-20.35t-12.71-13.808q0-3.629,7.27-3.634h351.63q28.32,0,46.86,14.532,18.525,14.55,18.52,37.07a41.241,41.241,0,0,1-2.18,13.08l-12.35,49.41a2.961,2.961,0,0,0-.73,2.18Q3203.17,1117.57,3218.43,1119.37Zm116.24,67.95,40.69-152.61a5.692,5.692,0,0,1,.72-2.18q0-7.26-9.44-7.27h-98.81c-3.39,0-5.08-.72-5.08-2.18,0-.96,1.2-2.18,3.63-3.63l29.79-19.621a36.127,36.127,0,0,1,21.07-6.541h58.12q17.43,0,17.43-26.889,0-9.435-12.35-20.711-12.36-11.259-12.35-14.171,0-3.629,6.54-4.361l187.44-29.069h2.18c4.83,0,7.26,1.7,7.26,5.087q0,8.721-10.89,41.787t-10.9,41.06q0,7.272,9.44,7.267h98.08q5.805,0,5.81,2.18,0,1.466-3.63,4.361l-29.79,19.621a39.352,39.352,0,0,1-21.06,5.81h-58.13q-10.89,0-13.8,9.45l-46.5,175.87v1.45q0,7.275,9.45,7.27h98.08c3.38,0,5.08.73,5.08,2.18q0,1.47-3.63,4.36l-29.06,19.62a43.2,43.2,0,0,1-21.79,5.81H3398.6q-28.32,0-46.85-14.17t-18.53-36.7a60.058,60.058,0,0,1,1.45-13.08h0Zm743.94,29.07q15.255,2.19,15.26,5.09c0,1.45-1.46,2.91-4.36,4.36l-29.06,19.62a38.478,38.478,0,0,1-21.07,6.54H3727.71q-28.335,0-46.86-14.17t-18.53-36.7a43.508,43.508,0,0,1,2.18-13.81l39.96-152.61a8.116,8.116,0,0,0,.73-3.63q0-8.73-12.72-20.35t-12.71-13.808q0-3.629,6.54-3.634h179.44c6.29,0,9.45,2.43,9.45,7.272a5.7,5.7,0,0,1-.73,2.18l-55.21,207.84v2.18c0,4.36,3.13,6.54,9.42,6.54h57.26q11.58,0,13.77-8.78l55.22-207.83q2.895-9.4,13.82-9.4h138.92q9.45,0,9.46,7.272v2.18l-53.77,201.3v2.18Q4063.35,1214.215,4078.61,1216.39Zm95.53,21.44q-18.525-14.175-18.52-36.7a43.228,43.228,0,0,1,2.18-13.81l16.71-64.68q7.245-26.16,35.6-45.42a108.787,108.787,0,0,1,62.48-19.25h149.66q18.15,0,18.16-25.44c0-4.36-3.16-6.54-9.45-6.54H4252.24q-11.625,0-18.16-6.54l-18.89-19.621a4.16,4.16,0,0,1-1.45-2.907q0-3.629,6.54-3.634h311.67q28.335,0,46.86,14.532,18.525,14.55,18.52,37.07a41.226,41.226,0,0,1-2.17,13.08l-38.51,146.07v2.18q0,7.995,15.26,10.17t15.25,5.09c0,1.45-1.45,2.91-4.36,4.36q-39.225,26.16-50.12,26.16H4221Q4192.665,1252,4174.14,1237.83Zm168.19-138.44q-29.79,111.915-29.79,113.37,0,6.54,9.48,6.54h57.6q11.655,0,13.85-8.64,29.775-111.915,29.79-113.37,0-7.35-8.76-7.35h-58.32q-11.67,0-13.85,9.45h0Zm359.62-172.234,186.71-29.069h2.91c4.36,0,6.54,1.7,6.54,5.087v2.181l-79.19,298.685a2.946,2.946,0,0,0-.73,2.18q0,7.995,15.62,9.81t15.62,4.72q0,2.19-43.59,30.52H4656.18q-9.45,0-9.44-6.54v-2.18l72.65-272.517a12.332,12.332,0,0,0,.72-3.634q0-9.435-12.71-20.711-12.72-11.259-12.71-14.171c0-2.419,2.41-3.872,7.26-4.361h0Z"/>
  <path id="Elipse_1" data-name="Elipse 1" class="cls-2" d="M1285.83,258c309.74,0,560.84,251.168,560.84,561s-251.1,561-560.84,561S725,1128.83,725,819,976.094,258,1285.83,258Z"/>
  <path id="Forma_1" data-name="Forma 1" class="cls-1" d="M1074.14,496.549s38.68,28.773,32.17,82.823c-21.42,177.875-110.3,565.958-110.3,565.958H1428.02s22.24-5.07,36.76-18.4c12.96-11.89,18.39-32.21,18.39-32.21h-220.6s-17.02-3.07-22.98-13.81c-5.51-9.93-4.6-27.6-4.6-27.6l41.36-207.062,238.99,4.6s18.05-11.086,27.57-23.007a42.585,42.585,0,0,0,9.19-23.006H1285.55l64.34-257.674,248.17,4.6s18.95-8.2,27.58-23.007c7.35-12.622,4.59-32.209,4.59-32.209H1074.14Z"/>
</svg>
