<svg xmlns="http://www.w3.org/2000/svg" width="10000" height="10000" viewBox="0 0 10000 10000">
  <defs>
    <style>
      .cls-1 {
        fill: none;
        stroke: #fff;
        stroke-width: 325.2px;
      }

      .cls-2 {
        fill: #fff;
        fill-rule: evenodd;
      }
    </style>
  </defs>
  <circle id="Elipse_1" data-name="Elipse 1" class="cls-1" cx="5000.045" cy="5000" r="4305.045"/>
  <path id="Forma_1" data-name="Forma 1" class="cls-2" d="M3375.04,2525.58s296.91,220.8,246.95,635.57c-164.43,1364.97-846.68,4343.07-846.68,4343.07H6091.46s170.72-38.94,282.23-141.24c99.47-91.27,141.11-247.17,141.11-247.17H4821.45s-130.65-23.51-176.39-105.93c-42.32-76.23-35.28-211.86-35.28-211.86l317.5-1588.92,1834.47,35.31s138.55-85.07,211.67-176.55c67.79-84.81,70.55-176.55,70.55-176.55H4997.84l493.89-1977.33,1905.03,35.31s145.43-62.9,211.67-176.55c56.45-96.86,35.28-247.16,35.28-247.16H3375.04Z"/>
</svg>
